#N canvas 0 0 1362 696 10;
#X obj 73 611 delwrite~ \$0-a \$1;
#X obj 72 31 f \$1;
#X obj 237 611 delwrite~ \$0-b \$1;
#X obj 417 611 delwrite~ \$0-c \$1;
#X obj 582 611 delwrite~ \$0-d \$1;
#X obj 72 415 vd~ \$0-a;
#X obj 72 443 +~;
#X obj 236 443 -~;
#X obj 432 443 +~;
#X obj 597 443 -~;
#X obj 72 480 +~;
#X obj 582 480 -~;
#X obj 237 480 +~;
#X obj 417 480 -~;
#X obj 237 510 *~;
#X obj 72 510 *~;
#X obj 417 510 *~;
#X obj 582 510 *~;
#X obj 732 461 f \$2;
#X obj 732 483 / 2;
#X obj 101 167 random 10000;
#X obj 101 189 / 10000;
#X obj 117 355 osc~;
#X obj 138 85 random 10000;
#X obj 133 111 / 10000;
#X obj 72 393 +~;
#X obj 297 355 osc~;
#X obj 318 85 random 10000;
#X obj 318 107 / 10000;
#X obj 252 393 +~;
#X obj 477 355 osc~;
#X obj 498 85 random 10000;
#X obj 498 107 / 10000;
#X obj 432 393 +~;
#X obj 657 355 osc~;
#X obj 678 85 random 10000;
#X obj 678 107 / 10000;
#X obj 612 393 +~;
#X obj 612 90 * 0.95;
#X obj 432 90 * 0.85;
#X obj 252 415 vd~ \$0-b;
#X obj 432 415 vd~ \$0-c;
#X obj 612 415 vd~ \$0-d;
#X obj 23 637 outlet~;
#X obj 72 4 loadbang;
#X obj 187 638 outlet~;
#X obj 83 584 inlet~;
#X obj 247 584 inlet~;
#X obj 187 611 *~ 0.5;
#X obj 23 611 *~ 0.5;
#X obj 72 557 lop~;
#X obj 759 530 f \$3;
#X obj 237 557 lop~;
#X obj 417 557 lop~;
#X obj 582 557 lop~;
#X obj 72 68 t f b b;
#X obj 72 90 * 0.65;
#X obj 252 90 * 0.75;
#X obj 252 68 t f b b;
#X obj 432 68 t f b b;
#X obj 612 68 t f b b;
#X obj 732 439 t b b;
#X obj 732 417 loadbang;
#X obj 101 298 pack;
#X obj 101 320 line~;
#X obj 128 232 random 10000;
#X obj 128 254 + 5000;
#X obj 128 276 t f f;
#X obj 156 312 delay;
#X obj 101 140 t b b;
#X obj 287 168 random 10000;
#X obj 287 190 / 10000;
#X obj 287 299 pack;
#X obj 287 321 line~;
#X obj 314 233 random 10000;
#X obj 314 255 + 5000;
#X obj 314 277 t f f;
#X obj 342 313 delay;
#X obj 287 141 t b b;
#X obj 464 172 random 10000;
#X obj 464 194 / 10000;
#X obj 464 303 pack;
#X obj 464 325 line~;
#X obj 491 237 random 10000;
#X obj 491 259 + 5000;
#X obj 491 281 t f f;
#X obj 519 317 delay;
#X obj 464 145 t b b;
#X obj 622 171 random 10000;
#X obj 622 193 / 10000;
#X obj 622 302 pack;
#X obj 622 324 line~;
#X obj 649 236 random 10000;
#X obj 649 258 + 5000;
#X obj 649 280 t f f;
#X obj 677 316 delay;
#X obj 622 144 t b b;
#X obj 101 211 * 2;
#X obj 287 212 * 2;
#X obj 464 216 * 2;
#X obj 622 215 * 2;
#X obj 117 377 *~ 0.1;
#X obj 297 377 *~ 0.1;
#X obj 477 377 *~ 0.1;
#X obj 657 377 *~ 0.1;
#X obj 72 371 -~ 0.1;
#X obj 252 371 -~ 0.1;
#X obj 432 371 -~ 0.1;
#X obj 612 371 -~ 0.1;
#X connect 1 0 55 0;
#X connect 1 0 58 0;
#X connect 1 0 59 0;
#X connect 1 0 60 0;
#X connect 5 0 6 0;
#X connect 5 0 7 0;
#X connect 6 0 10 0;
#X connect 6 0 13 0;
#X connect 7 0 12 0;
#X connect 7 0 11 0;
#X connect 8 0 13 1;
#X connect 8 0 10 1;
#X connect 9 0 12 1;
#X connect 9 0 11 1;
#X connect 10 0 15 0;
#X connect 11 0 17 0;
#X connect 12 0 14 0;
#X connect 13 0 16 0;
#X connect 14 0 52 0;
#X connect 15 0 50 0;
#X connect 16 0 53 0;
#X connect 17 0 54 0;
#X connect 18 0 19 0;
#X connect 19 0 15 1;
#X connect 19 0 14 1;
#X connect 19 0 16 1;
#X connect 19 0 17 1;
#X connect 20 0 21 0;
#X connect 21 0 97 0;
#X connect 22 0 101 0;
#X connect 23 0 24 0;
#X connect 24 0 22 1;
#X connect 25 0 5 0;
#X connect 26 0 102 0;
#X connect 27 0 28 0;
#X connect 28 0 26 1;
#X connect 29 0 40 0;
#X connect 30 0 103 0;
#X connect 31 0 32 0;
#X connect 32 0 30 1;
#X connect 33 0 41 0;
#X connect 34 0 104 0;
#X connect 35 0 36 0;
#X connect 36 0 34 1;
#X connect 37 0 42 0;
#X connect 38 0 108 0;
#X connect 39 0 107 0;
#X connect 40 0 7 1;
#X connect 40 0 6 1;
#X connect 41 0 8 0;
#X connect 41 0 9 0;
#X connect 42 0 9 1;
#X connect 42 0 8 1;
#X connect 44 0 1 0;
#X connect 46 0 0 0;
#X connect 47 0 2 0;
#X connect 48 0 45 0;
#X connect 49 0 43 0;
#X connect 50 0 0 0;
#X connect 50 0 49 0;
#X connect 51 0 54 1;
#X connect 51 0 53 1;
#X connect 51 0 52 1;
#X connect 51 0 50 1;
#X connect 52 0 2 0;
#X connect 52 0 48 0;
#X connect 53 0 3 0;
#X connect 54 0 4 0;
#X connect 55 0 56 0;
#X connect 55 1 69 0;
#X connect 55 2 23 0;
#X connect 56 0 105 0;
#X connect 57 0 106 0;
#X connect 58 0 57 0;
#X connect 58 1 78 0;
#X connect 58 2 27 0;
#X connect 59 0 39 0;
#X connect 59 1 87 0;
#X connect 59 2 31 0;
#X connect 60 0 38 0;
#X connect 60 1 96 0;
#X connect 60 2 35 0;
#X connect 61 0 18 0;
#X connect 61 1 51 0;
#X connect 62 0 61 0;
#X connect 63 0 64 0;
#X connect 64 0 22 0;
#X connect 65 0 66 0;
#X connect 66 0 67 0;
#X connect 67 0 63 1;
#X connect 67 1 68 0;
#X connect 68 0 69 0;
#X connect 69 0 20 0;
#X connect 69 1 65 0;
#X connect 70 0 71 0;
#X connect 71 0 98 0;
#X connect 72 0 73 0;
#X connect 73 0 26 0;
#X connect 74 0 75 0;
#X connect 75 0 76 0;
#X connect 76 0 72 1;
#X connect 76 1 77 0;
#X connect 77 0 78 0;
#X connect 78 0 70 0;
#X connect 78 1 74 0;
#X connect 79 0 80 0;
#X connect 80 0 99 0;
#X connect 81 0 82 0;
#X connect 82 0 30 0;
#X connect 83 0 84 0;
#X connect 84 0 85 0;
#X connect 85 0 81 1;
#X connect 85 1 86 0;
#X connect 86 0 87 0;
#X connect 87 0 79 0;
#X connect 87 1 83 0;
#X connect 88 0 89 0;
#X connect 89 0 100 0;
#X connect 90 0 91 0;
#X connect 91 0 34 0;
#X connect 92 0 93 0;
#X connect 93 0 94 0;
#X connect 94 0 90 1;
#X connect 94 1 95 0;
#X connect 95 0 96 0;
#X connect 96 0 88 0;
#X connect 96 1 92 0;
#X connect 97 0 63 0;
#X connect 98 0 72 0;
#X connect 99 0 81 0;
#X connect 100 0 90 0;
#X connect 101 0 25 1;
#X connect 102 0 29 1;
#X connect 103 0 33 1;
#X connect 104 0 37 1;
#X connect 105 0 25 0;
#X connect 106 0 29 0;
#X connect 107 0 33 0;
#X connect 108 0 37 0;
