#N canvas 0 15 885 697 10;
#N canvas 0 15 885 718 startupStuff 0;
#X obj 469 277 until;
#X obj 469 392 /;
#X obj 469 321 f;
#X obj 496 321 i;
#X obj 523 321 + 1;
#X msg 496 343 2 \$1;
#X obj 496 365 pow;
#X msg 511 298 0;
#X obj 469 233 + 1;
#X obj 469 299 t b b;
#X obj 469 436 - 1;
#X obj 469 458 int;
#X obj 469 480 sel 0;
#X obj 469 255 t b f b;
#X obj 469 414 t f f;
#X obj 469 157 until;
#X obj 469 131 t f b;
#X obj 469 184 i;
#X obj 496 184 + 1;
#X msg 513 157 0;
#X obj 469 206 t f f;
#X msg 469 109 1024;
#X obj 215 28 loadbang;
#X obj 519 482 table scale 1024;
#X obj 498 444 tabwrite scale;
#X obj 277 184 until;
#X msg 323 337 2 \$1;
#X obj 323 359 pow;
#X obj 278 408 *;
#X obj 278 278 tabread scale;
#X obj 272 210 t b b b;
#X obj 379 311 f;
#X obj 419 309 + 1;
#X obj 276 144 t f b;
#X msg 373 225 0;
#X obj 271 453 tabwrite melody;
#X obj 323 313 random 2;
#X msg 271 111 40;
#X obj 278 251 random 36;
#X obj 268 496 table melody 40;
#X obj 186 57 t b b b;
#X obj 278 386 * 36.9375;
#X connect 0 0 9 0;
#X connect 1 0 14 0;
#X connect 2 0 1 0;
#X connect 3 0 4 0;
#X connect 3 0 5 0;
#X connect 4 0 3 1;
#X connect 5 0 6 0;
#X connect 6 0 1 1;
#X connect 7 0 3 1;
#X connect 8 0 13 0;
#X connect 9 0 2 0;
#X connect 9 1 3 0;
#X connect 10 0 11 0;
#X connect 11 0 12 0;
#X connect 12 0 0 1;
#X connect 13 0 0 0;
#X connect 13 1 2 1;
#X connect 13 2 7 0;
#X connect 14 0 10 0;
#X connect 14 1 24 0;
#X connect 15 0 17 0;
#X connect 16 0 15 0;
#X connect 16 1 19 0;
#X connect 17 0 18 0;
#X connect 17 0 20 0;
#X connect 18 0 17 1;
#X connect 19 0 17 1;
#X connect 20 0 8 0;
#X connect 20 1 24 1;
#X connect 21 0 16 0;
#X connect 22 0 40 0;
#X connect 25 0 30 0;
#X connect 26 0 27 0;
#X connect 27 0 28 1;
#X connect 28 0 35 0;
#X connect 29 0 41 0;
#X connect 30 0 38 0;
#X connect 30 1 36 0;
#X connect 30 2 31 0;
#X connect 31 0 32 0;
#X connect 31 0 35 1;
#X connect 32 0 31 1;
#X connect 33 0 25 0;
#X connect 33 1 34 0;
#X connect 34 0 31 1;
#X connect 36 0 26 0;
#X connect 37 0 33 0;
#X connect 38 0 29 0;
#X connect 40 1 37 0;
#X connect 40 2 21 0;
#X connect 41 0 28 0;
#X restore 31 83 pd startupStuff;
#N canvas 0 15 885 718 drone_stuff 0;
#N canvas 0 15 885 718 drone 0;
#X obj 254 458 until;
#X obj 254 485 i;
#X obj 286 485 + 1;
#X obj 254 436 t f b;
#X msg 298 458 0;
#X obj 254 566 pack;
#X obj 254 512 t f f;
#X obj 281 539 <;
#X msg 254 593 \; \$1-go \$2 \;;
#X obj 254 392 t b f;
#X msg 254 414 64;
#X obj 19 9 padbit~ 0;
#X obj 254 370 inlet;
#X obj 36 377 catch~ pad.l;
#X obj 138 376 catch~ pad.r;
#X obj 36 421 outlet~;
#X obj 138 420 outlet~;
#X obj 138 398 /~ 32;
#X obj 36 399 /~ 32;
#X obj 19 179 padbit~ 32;
#X obj 19 29 padbit~ 1;
#X obj 19 49 padbit~ 2;
#X obj 19 69 padbit~ 3;
#X obj 19 89 padbit~ 4;
#X obj 19 109 padbit~ 5;
#X obj 19 129 padbit~ 6;
#X obj 19 149 padbit~ 7;
#X obj 99 9 padbit~ 8;
#X obj 99 29 padbit~ 9;
#X obj 99 49 padbit~ 10;
#X obj 99 69 padbit~ 11;
#X obj 99 89 padbit~ 12;
#X obj 99 109 padbit~ 13;
#X obj 99 129 padbit~ 14;
#X obj 99 149 padbit~ 15;
#X obj 179 9 padbit~ 16;
#X obj 179 29 padbit~ 17;
#X obj 179 49 padbit~ 18;
#X obj 179 69 padbit~ 19;
#X obj 179 89 padbit~ 20;
#X obj 179 109 padbit~ 21;
#X obj 179 129 padbit~ 22;
#X obj 179 149 padbit~ 23;
#X obj 259 9 padbit~ 24;
#X obj 259 29 padbit~ 25;
#X obj 259 49 padbit~ 26;
#X obj 259 69 padbit~ 27;
#X obj 259 89 padbit~ 28;
#X obj 259 109 padbit~ 29;
#X obj 259 129 padbit~ 30;
#X obj 259 149 padbit~ 31;
#X obj 19 199 padbit~ 33;
#X obj 19 219 padbit~ 34;
#X obj 19 239 padbit~ 35;
#X obj 19 259 padbit~ 36;
#X obj 19 279 padbit~ 37;
#X obj 19 299 padbit~ 38;
#X obj 19 319 padbit~ 39;
#X obj 99 179 padbit~ 40;
#X obj 99 199 padbit~ 41;
#X obj 99 219 padbit~ 42;
#X obj 99 239 padbit~ 43;
#X obj 99 259 padbit~ 44;
#X obj 99 279 padbit~ 45;
#X obj 99 299 padbit~ 46;
#X obj 99 319 padbit~ 47;
#X obj 179 179 padbit~ 48;
#X obj 179 199 padbit~ 49;
#X obj 179 219 padbit~ 50;
#X obj 179 239 padbit~ 51;
#X obj 179 259 padbit~ 52;
#X obj 179 279 padbit~ 53;
#X obj 179 299 padbit~ 54;
#X obj 179 319 padbit~ 55;
#X obj 259 179 padbit~ 56;
#X obj 259 199 padbit~ 57;
#X obj 259 219 padbit~ 58;
#X obj 259 239 padbit~ 59;
#X obj 259 259 padbit~ 60;
#X obj 259 279 padbit~ 61;
#X obj 259 299 padbit~ 62;
#X obj 259 319 padbit~ 63;
#X connect 0 0 1 0;
#X connect 1 0 2 0;
#X connect 1 0 6 0;
#X connect 2 0 1 1;
#X connect 3 0 0 0;
#X connect 3 1 4 0;
#X connect 4 0 1 1;
#X connect 5 0 8 0;
#X connect 6 0 5 0;
#X connect 6 1 7 0;
#X connect 7 0 5 1;
#X connect 9 0 10 0;
#X connect 9 1 7 1;
#X connect 10 0 3 0;
#X connect 12 0 9 0;
#X connect 13 0 18 0;
#X connect 14 0 17 0;
#X connect 17 0 16 0;
#X connect 18 0 15 0;
#X restore 32 -8 pd drone;
#X obj 32 19 *~;
#X obj 77 20 *~;
#X obj 31 103 *~;
#X obj 77 103 *~;
#X obj 42 76 throw~ out.l;
#X obj 87 49 throw~ out.r;
#X obj 32 157 throw~ dub.l;
#X obj 77 130 throw~ dub.r;
#X obj 2 184 *~;
#X obj 106 195 *~;
#X obj 2 211 throw~ verb.l;
#X obj 106 222 throw~ verb.r;
#X obj 32 -35 r drone.voices;
#X obj 130 -35 r drone.amp;
#X obj 173 49 r drone.dub;
#X obj 163 131 r drone.verb;
#X obj 130 -8 lop~ 32;
#X obj 173 76 lop~ 32;
#X obj 163 158 lop~ 32;
#X connect 0 0 1 0;
#X connect 0 1 2 0;
#X connect 1 0 5 0;
#X connect 1 0 3 0;
#X connect 1 0 9 0;
#X connect 2 0 6 0;
#X connect 2 0 4 0;
#X connect 2 0 10 0;
#X connect 3 0 7 0;
#X connect 3 0 9 0;
#X connect 4 0 8 0;
#X connect 4 0 10 0;
#X connect 9 0 11 0;
#X connect 10 0 12 0;
#X connect 13 0 0 0;
#X connect 14 0 17 0;
#X connect 15 0 18 0;
#X connect 16 0 19 0;
#X connect 17 0 1 1;
#X connect 17 0 2 1;
#X connect 18 0 3 1;
#X connect 18 0 4 1;
#X connect 19 0 9 1;
#X connect 19 0 10 1;
#X restore 31 110 pd drone_stuff;
#N canvas 0 15 885 718 click_stuff 0;
#N canvas 0 15 885 718 clicks 0;
#X obj 41 223 vline~;
#X obj 41 64 <;
#X obj 41 86 sel 1;
#X obj 35 290 noise~;
#X obj 35 312 abs~;
#X obj 35 334 samphold~;
#X obj 92 312 phasor~;
#X obj 35 356 *~ 4000;
#X msg 92 268 2 \$1;
#X obj 92 290 pow;
#X obj 25 245 noise~;
#X obj 25 267 *~;
#X obj 92 246 random 12;
#X obj 25 495 *~;
#X obj 62 502 *~;
#X obj 40 432 random 1000;
#X obj 40 454 / 1000;
#X obj 85 459 random 1000;
#X obj 85 481 / 1000;
#X obj 58 408 t b b;
#X obj 56 -46 inlet;
#X msg 41 201 0 \, 1 \$1 \, 0 \$1 \$1;
#X obj 41 135 random 10000;
#X obj 41 157 / 10000;
#X obj 148 300 random 10000;
#X obj 148 322 / 10000;
#X obj 24 383 vcf~;
#X obj 41 108 t b b b b;
#X obj 41 179 * 8;
#X obj 148 366 + 8;
#X obj 24 405 *~ 6;
#X obj 25 552 outlet~;
#X obj 62 529 outlet~;
#X obj 41 -24 metro 1;
#X obj 41 -68 inlet;
#X obj 41 -2 random 1e+06;
#X obj 41 20 / 1e+06;
#X obj 41 42 * 1000;
#X obj 148 344 * 64;
#X connect 0 0 11 1;
#X connect 1 0 2 0;
#X connect 2 0 27 0;
#X connect 3 0 4 0;
#X connect 4 0 5 0;
#X connect 5 0 7 0;
#X connect 6 0 5 1;
#X connect 7 0 26 1;
#X connect 8 0 9 0;
#X connect 9 0 6 0;
#X connect 10 0 11 0;
#X connect 11 0 26 0;
#X connect 12 0 8 0;
#X connect 13 0 31 0;
#X connect 14 0 32 0;
#X connect 15 0 16 0;
#X connect 16 0 13 1;
#X connect 17 0 18 0;
#X connect 18 0 14 1;
#X connect 19 0 15 0;
#X connect 19 1 17 0;
#X connect 20 0 1 1;
#X connect 21 0 0 0;
#X connect 22 0 23 0;
#X connect 23 0 28 0;
#X connect 24 0 25 0;
#X connect 25 0 38 0;
#X connect 26 0 30 0;
#X connect 27 0 22 0;
#X connect 27 1 19 0;
#X connect 27 2 12 0;
#X connect 27 3 24 0;
#X connect 28 0 21 0;
#X connect 29 0 26 2;
#X connect 30 0 13 0;
#X connect 30 0 14 0;
#X connect 33 0 35 0;
#X connect 34 0 33 0;
#X connect 35 0 36 0;
#X connect 36 0 37 0;
#X connect 37 0 1 0;
#X connect 38 0 29 0;
#X restore 117 42 pd clicks;
#X obj 117 115 *~;
#X obj 169 115 *~;
#X obj 117 172 *~;
#X obj 170 175 *~;
#X obj 80 149 throw~ out.l;
#X obj 191 154 throw~ out.r;
#X obj 109 251 throw~ dub.l;
#X obj 167 217 throw~ dub.r;
#X obj 45 268 *~;
#X obj 225 298 *~;
#X obj 37 301 throw~ verb.l;
#X obj 225 325 throw~ verb.r;
#X obj 117 -12 r clicks.on;
#X obj 168 15 r clicks.density;
#X obj 184 42 r clicks.amp;
#X obj 250 239 r clicks.verb;
#X obj 245 174 r clicks.dub;
#X obj 245 201 lop~ 32;
#X obj 250 266 lop~ 32;
#X obj 184 69 lop~ 32;
#X connect 0 0 1 0;
#X connect 0 1 2 0;
#X connect 1 0 5 0;
#X connect 1 0 3 0;
#X connect 1 0 9 0;
#X connect 2 0 6 0;
#X connect 2 0 4 0;
#X connect 2 0 10 0;
#X connect 3 0 7 0;
#X connect 3 0 9 0;
#X connect 4 0 8 0;
#X connect 4 0 10 0;
#X connect 9 0 11 0;
#X connect 10 0 12 0;
#X connect 13 0 0 0;
#X connect 14 0 0 1;
#X connect 15 0 20 0;
#X connect 16 0 19 0;
#X connect 17 0 18 0;
#X connect 18 0 3 1;
#X connect 18 0 4 1;
#X connect 19 0 9 1;
#X connect 19 0 10 1;
#X connect 20 0 1 1;
#X connect 20 0 2 1;
#X restore 31 137 pd click_stuff;
#X msg 686 119 64;
#X msg 610 88 0;
#X msg 613 118 32;
#X msg 642 91 8;
#X msg 675 90 16;
#X msg 708 94 24;
#X msg 653 117 48;
#X obj 642 156 s drone.voices;
#X obj 745 88 vsl 15 64 0 1 0 0 empty empty empty 0 -9 0 10 -262144
-1 -1 0 1;
#X obj 745 166 s drone.amp;
#X obj 775 68 vsl 15 64 0 1 0 0 empty empty empty 0 -9 0 10 -262144
-1 -1 0 1;
#X obj 775 146 s drone.dub;
#X obj 805 48 vsl 15 64 0 1 0 0 empty empty empty 0 -9 0 10 -262144
-1 -1 0 1;
#X obj 805 126 s drone.verb;
#N canvas 0 15 885 718 swarm_stuff 0;
#N canvas 0 15 885 718 swarm 0;
#X obj 50 -193 metro 1;
#X obj 50 -171 random 1e+06;
#X obj 50 -149 / 1e+06;
#X obj 50 -127 * 1000;
#X obj 50 -105 <;
#X obj 50 -79 sel 1;
#X obj 17 200 phasor~;
#X obj 57 297 *~;
#X obj 57 324 *~;
#X obj 67 351 *~;
#X obj 364 269 random 10000;
#X obj 364 291 / 10000;
#X obj 364 313 pack;
#X obj 364 335 line~;
#X obj 364 247 t b f;
#X obj 274 242 random 10000;
#X obj 274 264 / 10000;
#X obj 274 286 pack;
#X obj 274 308 line~;
#X obj 274 220 t b f;
#X obj 107 -29 random 10000;
#X obj 107 -7 / 10000;
#X msg 195 210 1 \, 0 \$1;
#X obj 195 234 line~;
#X obj 50 -57 t b b;
#X obj 107 59 t f f f;
#X obj 274 185 t f f;
#X obj 107 37 + 10;
#X obj 107 15 * 20;
#X obj 17 244 -~ 1;
#X obj 17 221 *~ 2;
#X obj 50 -215 inlet;
#X obj 101 -193 inlet;
#X obj 56 398 outlet~;
#X obj 67 376 outlet~;
#X obj 107 218 line~;
#X obj 107 240 *~;
#X obj 57 270 vcf~ 4;
#X obj 107 169 pack;
#X msg 107 196 \$1 \, 0 \$2;
#X obj 107 81 t b f;
#X obj 107 103 random 1e+06;
#X obj 107 125 / 1e+06;
#X obj 107 147 * 6;
#X obj 198 259 *~;
#X msg 44 102 2 \$1;
#X obj 44 124 pow;
#X obj 17 173 *;
#X obj 17 9 t b b;
#X obj 17 31 random 18;
#X obj 17 53 tabread scale;
#X obj 44 80 random 4;
#X obj 198 281 lop~ 32;
#X obj 17 151 * 73.875;
#X connect 0 0 1 0;
#X connect 1 0 2 0;
#X connect 2 0 3 0;
#X connect 3 0 4 0;
#X connect 4 0 5 0;
#X connect 5 0 24 0;
#X connect 6 0 30 0;
#X connect 7 0 8 0;
#X connect 7 0 9 0;
#X connect 8 0 33 0;
#X connect 9 0 34 0;
#X connect 10 0 11 0;
#X connect 11 0 12 0;
#X connect 12 0 13 0;
#X connect 13 0 9 1;
#X connect 14 0 10 0;
#X connect 14 1 12 1;
#X connect 15 0 16 0;
#X connect 16 0 17 0;
#X connect 17 0 18 0;
#X connect 18 0 8 1;
#X connect 19 0 15 0;
#X connect 19 1 17 1;
#X connect 20 0 21 0;
#X connect 21 0 28 0;
#X connect 22 0 23 0;
#X connect 23 0 44 0;
#X connect 23 0 44 1;
#X connect 24 0 48 0;
#X connect 24 1 20 0;
#X connect 25 0 40 0;
#X connect 25 1 22 0;
#X connect 25 2 26 0;
#X connect 26 0 19 0;
#X connect 26 1 14 0;
#X connect 27 0 25 0;
#X connect 28 0 27 0;
#X connect 29 0 37 0;
#X connect 30 0 29 0;
#X connect 31 0 0 0;
#X connect 32 0 4 1;
#X connect 35 0 36 0;
#X connect 36 0 37 1;
#X connect 37 0 7 0;
#X connect 38 0 39 0;
#X connect 39 0 35 0;
#X connect 40 0 41 0;
#X connect 40 1 38 1;
#X connect 41 0 42 0;
#X connect 42 0 43 0;
#X connect 43 0 38 0;
#X connect 44 0 52 0;
#X connect 45 0 46 0;
#X connect 46 0 47 1;
#X connect 47 0 36 1;
#X connect 47 0 6 0;
#X connect 48 0 49 0;
#X connect 48 1 51 0;
#X connect 49 0 50 0;
#X connect 50 0 53 0;
#X connect 51 0 45 0;
#X connect 52 0 7 1;
#X connect 53 0 47 0;
#X restore 88 66 pd swarm;
#X obj 88 93 *~;
#X obj 140 93 *~;
#X obj 88 163 *~;
#X obj 140 163 *~;
#X obj 98 147 throw~ out.l;
#X obj 150 120 throw~ out.r;
#X obj 89 217 throw~ dub.l;
#X obj 140 190 throw~ dub.r;
#X obj 243 180 *~;
#X obj 295 180 *~;
#X obj 244 234 throw~ verb.l;
#X obj 295 207 throw~ verb.r;
#X obj 89 5 r swarm.on;
#X obj 134 30 r swarm.density;
#X obj 179 53 r swarm.amp;
#X obj 320 122 r swarm.verb;
#X obj 234 118 r swarm.dub;
#X obj 320 148 lop~ 32;
#X obj 235 147 lop~ 32;
#X obj 179 77 lop~ 32;
#X connect 0 0 1 0;
#X connect 0 1 2 0;
#X connect 1 0 5 0;
#X connect 1 0 3 0;
#X connect 1 0 9 0;
#X connect 2 0 6 0;
#X connect 2 0 4 0;
#X connect 2 0 10 0;
#X connect 3 0 7 0;
#X connect 3 0 9 0;
#X connect 4 0 8 0;
#X connect 4 0 10 0;
#X connect 9 0 11 0;
#X connect 10 0 12 0;
#X connect 13 0 0 0;
#X connect 14 0 0 1;
#X connect 15 0 20 0;
#X connect 16 0 18 0;
#X connect 17 0 19 0;
#X connect 18 0 9 1;
#X connect 18 0 10 1;
#X connect 19 0 3 1;
#X connect 19 0 4 1;
#X connect 20 0 1 1;
#X connect 20 0 2 1;
#X restore 31 164 pd swarm_stuff;
#N canvas 0 15 885 718 beep_stuff 0;
#N canvas 0 15 885 718 beep2 0;
#X obj 73 452 phasor~;
#X obj 73 479 +~;
#X obj 73 501 cos~;
#N canvas 669 130 450 300 fb~ 0;
#X obj 53 95 inlet~;
#X obj 53 188 outlet~;
#X obj 53 117 +~;
#X obj 103 101 *~;
#X obj 118 79 inlet~;
#X obj 53 139 cos~;
#X obj 118 139 block~ 1;
#X obj 63 166 delwrite~ \$0-fb2;
#X obj 103 57 delread~ \$0-fb2;
#X connect 0 0 2 0;
#X connect 2 0 5 0;
#X connect 3 0 2 1;
#X connect 4 0 3 1;
#X connect 5 0 1 0;
#X connect 5 0 7 0;
#X connect 8 0 3 0;
#X restore 354 441 pd fb~;
#X obj 354 415 phasor~;
#X obj 355 463 *~;
#X obj 73 523 *~;
#X obj 441 336 t b b;
#X obj 441 358 random 100000;
#X obj 441 380 / 100000;
#X obj 531 357 t b b;
#X obj 531 379 random 100000;
#X obj 531 401 / 100000;
#X obj 184 349 vline~;
#X msg 184 327 0 \, 1 \$1 \, 0 \$1 \$1;
#X obj 184 377 *~;
#X obj 184 239 random 10000;
#X obj 184 261 / 10000;
#X obj 184 399 lop~ 12;
#X obj 184 283 * 750;
#X obj 441 425 lop~ 32;
#X obj 531 446 lop~ 32;
#X obj 354 388 lop~ 64;
#X obj 338 39 metro 1;
#X obj 441 226 random 1e+08;
#X obj 441 248 / 1e+08;
#X obj 441 270 * 1000;
#X obj 441 292 <;
#X obj 441 314 sel 1;
#X obj 531 247 random 1e+08;
#X obj 531 269 / 1e+08;
#X obj 531 291 * 1000;
#X obj 531 313 <;
#X obj 531 335 sel 1;
#X obj 355 83 random 1e+08;
#X obj 355 105 / 1e+08;
#X obj 355 127 * 1000;
#X obj 355 149 <;
#X obj 268 85 random 1e+08;
#X obj 268 107 / 1e+08;
#X obj 268 129 * 1000;
#X obj 268 151 <;
#X obj 268 173 sel 1;
#X obj 79 52 random 1e+08;
#X obj 79 74 / 1e+08;
#X obj 79 118 pack;
#X obj 141 112 * 2;
#X obj 79 140 line 0 1;
#X obj 79 96 * 6;
#X obj 184 305 + 150;
#X obj 174 468 t b b;
#X obj 174 490 random 100000;
#X obj 174 512 / 100000;
#X obj 236 517 random 100000;
#X obj 236 539 / 100000;
#X obj 174 534 lop~ 2;
#X obj 236 561 lop~ 2;
#X obj 73 550 *~;
#X obj 83 577 *~;
#X obj 338 61 t b b b b;
#X obj 79 30 t b b b;
#X obj 79 3 metro;
#X obj 118 -19 random 10000;
#X obj 118 3 + 3000;
#X obj 441 402 * 0.1;
#X obj 73 631 outlet~;
#X obj 338 17 loadbang;
#X obj 83 604 outlet~;
#X obj 79 -22 inlet;
#X obj 531 424 * 0.75;
#X msg 88 327 2 \$1;
#X obj 88 349 pow;
#X obj 73 398 *;
#X obj 73 239 t b b;
#X obj 73 376 * 64;
#X obj 73 261 random 12;
#X obj 88 305 random 5;
#X msg 369 290 2 \$1;
#X obj 369 312 pow;
#X obj 354 361 *;
#X obj 354 197 t b b;
#X obj 369 268 random 6;
#X obj 354 219 random 8;
#X obj 355 171 sel 1;
#X obj 79 167 f;
#X obj 73 283 tabread scale;
#X obj 354 241 tabread scale;
#X obj 73 425 lop~ 73.875;
#X obj 354 339 * 73.875;
#X connect 0 0 1 0;
#X connect 1 0 2 0;
#X connect 2 0 6 0;
#X connect 3 0 5 0;
#X connect 4 0 3 0;
#X connect 5 0 1 1;
#X connect 6 0 57 0;
#X connect 6 0 58 0;
#X connect 7 0 8 0;
#X connect 8 0 9 0;
#X connect 9 0 64 0;
#X connect 10 0 11 0;
#X connect 11 0 12 0;
#X connect 12 0 69 0;
#X connect 13 0 15 1;
#X connect 13 0 15 0;
#X connect 14 0 13 0;
#X connect 15 0 18 0;
#X connect 16 0 17 0;
#X connect 17 0 19 0;
#X connect 18 0 6 1;
#X connect 19 0 49 0;
#X connect 20 0 3 1;
#X connect 21 0 5 1;
#X connect 22 0 4 0;
#X connect 23 0 59 0;
#X connect 24 0 25 0;
#X connect 25 0 26 0;
#X connect 26 0 27 0;
#X connect 27 0 28 0;
#X connect 28 0 7 0;
#X connect 29 0 30 0;
#X connect 30 0 31 0;
#X connect 31 0 32 0;
#X connect 32 0 33 0;
#X connect 33 0 10 0;
#X connect 34 0 35 0;
#X connect 35 0 36 0;
#X connect 36 0 37 0;
#X connect 37 0 83 0;
#X connect 38 0 39 0;
#X connect 39 0 40 0;
#X connect 40 0 41 0;
#X connect 41 0 42 0;
#X connect 42 0 73 0;
#X connect 43 0 44 0;
#X connect 44 0 48 0;
#X connect 45 0 47 0;
#X connect 46 0 45 1;
#X connect 47 0 84 0;
#X connect 48 0 45 0;
#X connect 49 0 14 0;
#X connect 49 0 46 0;
#X connect 50 0 51 0;
#X connect 50 1 53 0;
#X connect 51 0 52 0;
#X connect 52 0 55 0;
#X connect 53 0 54 0;
#X connect 54 0 56 0;
#X connect 55 0 57 1;
#X connect 56 0 58 1;
#X connect 57 0 65 0;
#X connect 58 0 67 0;
#X connect 59 0 38 0;
#X connect 59 1 34 0;
#X connect 59 2 24 0;
#X connect 59 3 29 0;
#X connect 60 0 43 0;
#X connect 60 1 16 0;
#X connect 60 2 50 0;
#X connect 61 0 62 0;
#X connect 61 0 60 0;
#X connect 62 0 63 0;
#X connect 63 0 61 1;
#X connect 64 0 20 0;
#X connect 66 0 23 0;
#X connect 68 0 61 0;
#X connect 69 0 21 0;
#X connect 70 0 71 0;
#X connect 71 0 72 1;
#X connect 72 0 87 0;
#X connect 73 0 75 0;
#X connect 73 1 76 0;
#X connect 74 0 72 0;
#X connect 75 0 85 0;
#X connect 76 0 70 0;
#X connect 77 0 78 0;
#X connect 78 0 79 1;
#X connect 79 0 22 0;
#X connect 80 0 82 0;
#X connect 80 1 81 0;
#X connect 81 0 77 0;
#X connect 82 0 86 0;
#X connect 83 0 80 0;
#X connect 84 0 41 1;
#X connect 84 0 37 1;
#X connect 84 0 27 1;
#X connect 84 0 32 1;
#X connect 85 0 74 0;
#X connect 86 0 88 0;
#X connect 87 0 0 0;
#X connect 88 0 79 0;
#X restore 58 87 pd beep2;
#X obj 58 114 *~;
#X obj 110 114 *~;
#X obj 58 184 *~;
#X obj 110 184 *~;
#X obj 68 168 throw~ out.l;
#X obj 120 141 throw~ out.r;
#X obj 59 238 throw~ dub.l;
#X obj 110 211 throw~ dub.r;
#X obj 194 202 *~;
#X obj 246 202 *~;
#X obj 195 256 throw~ verb.l;
#X obj 246 229 throw~ verb.r;
#X obj 58 60 r beep.on;
#X obj 149 71 r beep.amp;
#X obj 234 117 r beep.verb;
#X obj 205 141 r beep.dub;
#X obj 271 170 lop~ 32;
#X obj 205 168 lop~ 32;
#X obj 149 98 lop~ 32;
#X connect 0 0 1 0;
#X connect 0 1 2 0;
#X connect 1 0 5 0;
#X connect 1 0 3 0;
#X connect 1 0 9 0;
#X connect 2 0 6 0;
#X connect 2 0 4 0;
#X connect 2 0 10 0;
#X connect 3 0 7 0;
#X connect 3 0 9 0;
#X connect 4 0 8 0;
#X connect 4 0 10 0;
#X connect 9 0 11 0;
#X connect 10 0 12 0;
#X connect 13 0 0 0;
#X connect 14 0 19 0;
#X connect 15 0 17 0;
#X connect 16 0 18 0;
#X connect 17 0 9 1;
#X connect 17 0 10 1;
#X connect 18 0 3 1;
#X connect 18 0 4 1;
#X connect 19 0 1 1;
#X connect 19 0 2 1;
#X restore 31 191 pd beep_stuff;
#N canvas 0 15 885 718 tabla_stuff 0;
#N canvas 0 15 885 718 tabla 0;
#X msg 225 356 2 \$1;
#X obj 225 378 pow;
#X obj 167 395 *;
#X obj 167 263 t b b;
#X obj 69 -11 + 1;
#X obj 69 33 /;
#X obj 69 55 t f f;
#X obj 96 77 delay;
#X msg 106 55 stop;
#X msg 322 266 1 \, 0 \$1;
#X obj 322 288 line~;
#X obj 322 310 *~;
#X obj 69 456 phasor~;
#X obj 69 483 +~;
#N canvas 669 130 450 300 fb~ 0;
#X obj 53 95 inlet~;
#X obj 53 188 outlet~;
#X obj 53 117 +~;
#X obj 103 101 *~;
#X obj 118 79 inlet~;
#X obj 53 139 cos~;
#X obj 118 139 block~ 1;
#X obj 63 166 delwrite~ \$0-fb;
#X obj 103 57 delread~ \$0-fb;
#X connect 0 0 2 0;
#X connect 2 0 5 0;
#X connect 3 0 2 1;
#X connect 4 0 3 1;
#X connect 5 0 1 0;
#X connect 5 0 7 0;
#X connect 8 0 3 0;
#X restore 167 445 pd fb~;
#X obj 167 423 phasor~;
#X obj 167 467 *~;
#X obj 69 527 *~;
#X obj 393 451 *~;
#X obj 305 429 *~;
#X obj 393 380 random 1e+06;
#X obj 393 402 / 1e+06;
#X obj 305 358 random 1e+06;
#X obj 305 380 / 1e+06;
#X obj 305 402 * 0.5;
#X obj 69 505 cos~;
#X obj 349 189 random 1e+06;
#X obj 349 211 / 1e+06;
#X obj 69 121 t b b b b f b b;
#X obj 167 285 random 36;
#X obj 69 549 outlet~;
#X obj 322 332 lop~ 128;
#X obj 393 424 * 0.3;
#X obj 96 99 s tabla;
#X msg 107 390 2 \$1;
#X obj 107 412 pow;
#X obj 69 429 *;
#X obj 69 297 t b b;
#X obj 107 368 random 1;
#X obj 69 341 tabread scale;
#X obj 167 307 tabread scale;
#X obj 15 -57 r tabla;
#X obj 225 334 random 5;
#X obj 322 239 * 0.5;
#X msg 69 11 500 \$1;
#X obj 69 -33 random 9;
#X obj 260 53 delay;
#X obj 260 5 + 1000;
#X obj 260 -17 random 3000;
#X obj 365 -4 random 5000;
#X obj 365 18 + 2000;
#X obj 232 -42 t b b b;
#X obj 363 73 +;
#X obj 260 28 t f f;
#X obj 363 95 delay;
#X msg 329 -48 stop;
#X obj 230 -64 sel 1 0;
#X obj 183 -62 inlet;
#X obj 69 319 random 24;
#X obj 49 407 * 73.875;
#X obj 167 373 * 73.875;
#X connect 0 0 1 0;
#X connect 1 0 2 1;
#X connect 2 0 15 0;
#X connect 3 0 29 0;
#X connect 3 1 42 0;
#X connect 4 0 44 0;
#X connect 5 0 6 0;
#X connect 6 0 28 0;
#X connect 6 1 7 0;
#X connect 7 0 33 0;
#X connect 8 0 7 0;
#X connect 9 0 10 0;
#X connect 10 0 11 0;
#X connect 10 0 11 1;
#X connect 11 0 31 0;
#X connect 12 0 13 0;
#X connect 13 0 25 0;
#X connect 14 0 16 0;
#X connect 15 0 14 0;
#X connect 16 0 13 1;
#X connect 17 0 30 0;
#X connect 18 0 16 1;
#X connect 19 0 14 1;
#X connect 20 0 21 0;
#X connect 21 0 32 0;
#X connect 22 0 23 0;
#X connect 23 0 24 0;
#X connect 24 0 19 0;
#X connect 25 0 17 0;
#X connect 26 0 27 0;
#X connect 27 0 43 1;
#X connect 28 0 37 0;
#X connect 28 1 3 0;
#X connect 28 2 22 0;
#X connect 28 3 20 0;
#X connect 28 4 43 0;
#X connect 28 5 26 0;
#X connect 29 0 40 0;
#X connect 31 0 17 1;
#X connect 31 0 18 1;
#X connect 31 0 19 1;
#X connect 32 0 18 0;
#X connect 34 0 35 0;
#X connect 35 0 36 1;
#X connect 36 0 12 0;
#X connect 37 0 58 0;
#X connect 37 1 38 0;
#X connect 38 0 34 0;
#X connect 39 0 59 0;
#X connect 40 0 60 0;
#X connect 41 0 45 0;
#X connect 42 0 0 0;
#X connect 43 0 9 0;
#X connect 44 0 5 0;
#X connect 45 0 4 0;
#X connect 46 0 8 0;
#X connect 47 0 53 0;
#X connect 48 0 47 0;
#X connect 49 0 50 0;
#X connect 50 0 52 1;
#X connect 51 0 45 0;
#X connect 51 1 48 0;
#X connect 51 2 49 0;
#X connect 52 0 54 0;
#X connect 53 0 46 0;
#X connect 53 1 52 0;
#X connect 54 0 51 0;
#X connect 55 0 54 0;
#X connect 56 0 51 0;
#X connect 56 1 55 0;
#X connect 57 0 56 0;
#X connect 58 0 39 0;
#X connect 59 0 36 0;
#X connect 60 0 2 0;
#X restore 70 75 pd tabla;
#X obj 49 103 *~;
#X obj 101 103 *~;
#X obj 49 173 *~;
#X obj 101 173 *~;
#X obj 59 157 throw~ out.l;
#X obj 111 130 throw~ out.r;
#X obj 50 227 throw~ dub.l;
#X obj 101 200 throw~ dub.r;
#X obj 170 214 *~;
#X obj 222 214 *~;
#X obj 171 268 throw~ verb.l;
#X obj 222 241 throw~ verb.r;
#X obj 140 60 r tabla.amp;
#X obj 196 120 r tabla.dub;
#X obj 217 166 r tabla.verb;
#X obj 70 48 r tabla.on;
#X obj 234 190 lop~ 32;
#X obj 196 147 lop~ 32;
#X obj 140 87 lop~ 32;
#X connect 0 0 1 0;
#X connect 0 0 2 0;
#X connect 1 0 5 0;
#X connect 1 0 3 0;
#X connect 1 0 9 0;
#X connect 2 0 6 0;
#X connect 2 0 4 0;
#X connect 2 0 10 0;
#X connect 3 0 7 0;
#X connect 3 0 9 0;
#X connect 4 0 8 0;
#X connect 4 0 10 0;
#X connect 9 0 11 0;
#X connect 10 0 12 0;
#X connect 13 0 19 0;
#X connect 14 0 18 0;
#X connect 15 0 17 0;
#X connect 16 0 0 0;
#X connect 17 0 9 1;
#X connect 17 0 10 1;
#X connect 18 0 3 1;
#X connect 18 0 4 1;
#X connect 19 0 1 1;
#X connect 19 0 2 1;
#X restore 31 218 pd tabla_stuff;
#N canvas 0 15 885 718 bell_stuff 0;
#X obj 87 68 t a a;
#N canvas 0 15 1022 718 highBell 0;
#X obj 32 292 phasor~;
#X obj 32 319 +~;
#X obj 32 346 cos~;
#X obj 32 440 *~;
#X obj 32 238 tabread melody;
#X obj 32 265 * 8;
#X obj 32 211 mod 8;
#X obj 32 577 *~;
#X obj 132 292 phasor~;
#X obj 132 319 +~;
#X obj 132 346 cos~;
#X obj 132 238 tabread melody;
#X obj 132 265 * 8;
#X obj 132 440 *~;
#X obj 232 292 phasor~;
#X obj 232 319 +~;
#X obj 232 346 cos~;
#X obj 232 238 tabread melody;
#X obj 232 440 *~;
#X obj 332 292 phasor~;
#X obj 332 319 +~;
#X obj 332 346 cos~;
#X obj 332 238 tabread melody;
#X obj 332 440 *~;
#X obj 432 292 phasor~;
#X obj 432 319 +~;
#X obj 432 346 cos~;
#X obj 432 238 tabread melody;
#X obj 432 440 *~;
#X msg 546 301 1 \, 0 \$1;
#X obj 546 328 line~;
#X obj 546 355 *~;
#X obj 546 382 lop~ 12;
#X obj 132 211 mod 16;
#X obj 232 211 mod 24;
#X obj 332 211 mod 32;
#X obj 432 211 mod 40;
#X obj 467 137 f;
#X obj 499 137 + 1;
#X obj 454 52 delay;
#X obj 454 79 t b b;
#X obj 546 197 random 1000;
#X obj 546 224 + 350;
#X obj 609 406 f;
#X obj 641 406 +;
#X obj 641 466 t f f;
#X obj 609 379 t b f;
#X obj 677 355 random 32;
#X obj 677 382 + 32;
#X obj 668 493 / 64;
#X obj 668 574 line~;
#X obj 668 520 pack;
#X obj 546 246 t f f;
#X obj 467 164 t f f f f f b;
#X obj 609 276 t f f;
#X obj 609 301 t b f;
#X msg 668 547 \$1 \$2;
#X obj 739 406 f;
#X obj 771 406 +;
#X obj 771 466 t f f;
#X obj 739 379 t b f;
#X obj 807 355 random 32;
#X obj 807 382 + 32;
#X obj 798 493 / 64;
#X obj 798 574 line~;
#X obj 798 520 pack;
#X obj 739 301 t b f;
#X msg 798 547 \$1 \$2;
#X obj 314 587 *~;
#X msg 517 39 0;
#X obj 21 609 outlet~;
#X obj 315 642 outlet~;
#X obj 445 3 inlet;
#X obj 232 265 * 4;
#X obj 332 265 * 2;
#X obj 432 265 * 1;
#X obj 698 238 t b b;
#X obj 454 25 t a b b;
#X obj 739 328 random 9;
#X obj 739 352 - 4;
#X obj 609 328 random 9;
#X obj 609 352 - 4;
#X obj 502 99 + 3000;
#X obj 502 72 random 6000;
#X obj 641 439 clip 16 64;
#X obj 771 439 clip 16 64;
#X obj 132 373 *~ 0.1;
#X obj 232 373 *~ 0.09;
#X obj 332 373 *~ 0.08;
#X obj 432 373 *~ 0.07;
#X obj 398 100 sel 1 0;
#X msg 407 126 stop;
#X connect 0 0 1 0;
#X connect 1 0 2 0;
#X connect 2 0 3 0;
#X connect 3 0 7 0;
#X connect 3 0 68 0;
#X connect 4 0 5 0;
#X connect 5 0 0 0;
#X connect 6 0 4 0;
#X connect 7 0 70 0;
#X connect 8 0 9 0;
#X connect 9 0 10 0;
#X connect 10 0 86 0;
#X connect 11 0 12 0;
#X connect 12 0 8 0;
#X connect 13 0 1 1;
#X connect 14 0 15 0;
#X connect 15 0 16 0;
#X connect 16 0 87 0;
#X connect 17 0 73 0;
#X connect 18 0 9 1;
#X connect 19 0 20 0;
#X connect 20 0 21 0;
#X connect 21 0 88 0;
#X connect 22 0 74 0;
#X connect 23 0 15 1;
#X connect 24 0 25 0;
#X connect 25 0 26 0;
#X connect 26 0 89 0;
#X connect 27 0 75 0;
#X connect 28 0 20 1;
#X connect 29 0 30 0;
#X connect 30 0 31 0;
#X connect 30 0 31 1;
#X connect 31 0 32 0;
#X connect 32 0 28 1;
#X connect 32 0 23 1;
#X connect 32 0 18 1;
#X connect 32 0 13 1;
#X connect 32 0 3 1;
#X connect 33 0 11 0;
#X connect 34 0 17 0;
#X connect 35 0 22 0;
#X connect 36 0 27 0;
#X connect 37 0 38 0;
#X connect 37 0 53 0;
#X connect 38 0 37 1;
#X connect 39 0 40 0;
#X connect 40 0 37 0;
#X connect 40 1 83 0;
#X connect 41 0 42 0;
#X connect 42 0 52 0;
#X connect 43 0 44 0;
#X connect 44 0 84 0;
#X connect 45 0 43 1;
#X connect 45 1 49 0;
#X connect 46 0 43 0;
#X connect 46 1 44 1;
#X connect 47 0 48 0;
#X connect 48 0 43 1;
#X connect 49 0 51 0;
#X connect 50 0 7 1;
#X connect 51 0 56 0;
#X connect 52 0 29 0;
#X connect 52 1 54 0;
#X connect 53 0 6 0;
#X connect 53 1 33 0;
#X connect 53 2 34 0;
#X connect 53 3 35 0;
#X connect 53 4 36 0;
#X connect 53 5 41 0;
#X connect 54 0 55 0;
#X connect 54 1 66 0;
#X connect 55 0 80 0;
#X connect 55 1 51 1;
#X connect 56 0 50 0;
#X connect 57 0 58 0;
#X connect 58 0 85 0;
#X connect 59 0 57 1;
#X connect 59 1 63 0;
#X connect 60 0 57 0;
#X connect 60 1 58 1;
#X connect 61 0 62 0;
#X connect 62 0 57 1;
#X connect 63 0 65 0;
#X connect 64 0 68 1;
#X connect 65 0 67 0;
#X connect 66 0 78 0;
#X connect 66 1 65 1;
#X connect 67 0 64 0;
#X connect 68 0 71 0;
#X connect 69 0 37 1;
#X connect 72 0 77 0;
#X connect 73 0 14 0;
#X connect 74 0 19 0;
#X connect 75 0 24 0;
#X connect 76 0 47 0;
#X connect 76 1 61 0;
#X connect 77 0 90 0;
#X connect 77 1 69 0;
#X connect 77 2 76 0;
#X connect 78 0 79 0;
#X connect 79 0 60 0;
#X connect 80 0 81 0;
#X connect 81 0 46 0;
#X connect 82 0 39 0;
#X connect 83 0 82 0;
#X connect 84 0 45 0;
#X connect 85 0 59 0;
#X connect 86 0 13 0;
#X connect 87 0 18 0;
#X connect 88 0 23 0;
#X connect 89 0 28 0;
#X connect 90 0 39 0;
#X connect 90 1 91 0;
#X connect 91 0 39 0;
#X restore 102 122 pd highBell;
#N canvas 0 15 885 718 lowBell 0;
#X obj 32 292 phasor~;
#X obj 32 319 +~;
#X obj 32 346 cos~;
#X obj 32 440 *~;
#X obj 32 238 tabread melody;
#X obj 32 211 mod 8;
#X obj 32 577 *~;
#X obj 132 292 phasor~;
#X obj 132 319 +~;
#X obj 132 346 cos~;
#X obj 132 238 tabread melody;
#X obj 132 440 *~;
#X obj 232 292 phasor~;
#X obj 232 319 +~;
#X obj 232 346 cos~;
#X obj 232 238 tabread melody;
#X obj 232 440 *~;
#X obj 332 292 phasor~;
#X obj 332 319 +~;
#X obj 332 346 cos~;
#X obj 332 238 tabread melody;
#X obj 332 440 *~;
#X obj 432 292 phasor~;
#X obj 432 319 +~;
#X obj 432 346 cos~;
#X obj 432 238 tabread melody;
#X obj 432 440 *~;
#X msg 546 301 1 \, 0 \$1;
#X obj 546 328 line~;
#X obj 546 355 *~;
#X obj 546 382 lop~ 12;
#X obj 132 211 mod 16;
#X obj 232 211 mod 24;
#X obj 332 211 mod 32;
#X obj 432 211 mod 40;
#X obj 467 137 f;
#X obj 499 137 + 1;
#X obj 463 72 delay;
#X obj 463 99 t b b;
#X obj 546 197 random 1000;
#X obj 546 224 + 350;
#X obj 609 406 f;
#X obj 641 406 +;
#X obj 641 466 t f f;
#X obj 609 379 t b f;
#X obj 677 355 random 32;
#X obj 677 382 + 32;
#X obj 668 493 / 64;
#X obj 668 574 line~;
#X obj 668 520 pack;
#X obj 546 246 t f f;
#X obj 467 164 t f f f f f b;
#X obj 609 276 t f f;
#X obj 609 301 t b f;
#X msg 668 547 \$1 \$2;
#X obj 739 406 f;
#X obj 771 406 +;
#X obj 771 466 t f f;
#X obj 739 379 t b f;
#X obj 807 355 random 32;
#X obj 807 382 + 32;
#X obj 798 493 / 64;
#X obj 798 574 line~;
#X obj 798 520 pack;
#X obj 739 301 t b f;
#X msg 798 547 \$1 \$2;
#X obj 314 587 *~;
#X msg 526 59 0;
#X obj 21 609 outlet~;
#X obj 315 642 outlet~;
#X obj 445 3 inlet;
#X obj 32 265 * 4;
#X obj 132 265 * 4;
#X obj 232 265 * 2;
#X obj 332 265 * 2;
#X obj 432 265 * 1;
#X obj 451 32 t a b b;
#X obj 699 240 t b b;
#X obj 609 328 random 9;
#X obj 609 352 - 4;
#X obj 739 328 random 9;
#X obj 739 352 - 4;
#X obj 511 119 + 3000;
#X obj 511 92 random 6000;
#X obj 641 439 clip 16 64;
#X obj 771 439 clip 16 64;
#X obj 132 373 *~ 0.1;
#X obj 232 373 *~ 0.09;
#X obj 332 373 *~ 0.08;
#X obj 432 373 *~ 0.07;
#X obj 388 90 sel 1 0;
#X msg 397 116 stop;
#X connect 0 0 1 0;
#X connect 1 0 2 0;
#X connect 2 0 3 0;
#X connect 3 0 6 0;
#X connect 3 0 66 0;
#X connect 4 0 71 0;
#X connect 5 0 4 0;
#X connect 6 0 68 0;
#X connect 7 0 8 0;
#X connect 8 0 9 0;
#X connect 9 0 86 0;
#X connect 10 0 72 0;
#X connect 11 0 1 1;
#X connect 12 0 13 0;
#X connect 13 0 14 0;
#X connect 14 0 87 0;
#X connect 15 0 73 0;
#X connect 16 0 8 1;
#X connect 17 0 18 0;
#X connect 18 0 19 0;
#X connect 19 0 88 0;
#X connect 20 0 74 0;
#X connect 21 0 13 1;
#X connect 22 0 23 0;
#X connect 23 0 24 0;
#X connect 24 0 89 0;
#X connect 25 0 75 0;
#X connect 26 0 18 1;
#X connect 27 0 28 0;
#X connect 28 0 29 0;
#X connect 28 0 29 1;
#X connect 29 0 30 0;
#X connect 30 0 26 1;
#X connect 30 0 21 1;
#X connect 30 0 16 1;
#X connect 30 0 11 1;
#X connect 30 0 3 1;
#X connect 31 0 10 0;
#X connect 32 0 15 0;
#X connect 33 0 20 0;
#X connect 34 0 25 0;
#X connect 35 0 36 0;
#X connect 35 0 51 0;
#X connect 36 0 35 1;
#X connect 37 0 38 0;
#X connect 38 0 35 0;
#X connect 38 1 83 0;
#X connect 39 0 40 0;
#X connect 40 0 50 0;
#X connect 41 0 42 0;
#X connect 42 0 84 0;
#X connect 43 0 41 1;
#X connect 43 1 47 0;
#X connect 44 0 41 0;
#X connect 44 1 42 1;
#X connect 45 0 46 0;
#X connect 46 0 41 1;
#X connect 47 0 49 0;
#X connect 48 0 6 1;
#X connect 49 0 54 0;
#X connect 50 0 27 0;
#X connect 50 1 52 0;
#X connect 51 0 5 0;
#X connect 51 1 31 0;
#X connect 51 2 32 0;
#X connect 51 3 33 0;
#X connect 51 4 34 0;
#X connect 51 5 39 0;
#X connect 52 0 53 0;
#X connect 52 1 64 0;
#X connect 53 0 78 0;
#X connect 53 1 49 1;
#X connect 54 0 48 0;
#X connect 55 0 56 0;
#X connect 56 0 85 0;
#X connect 57 0 55 1;
#X connect 57 1 61 0;
#X connect 58 0 55 0;
#X connect 58 1 56 1;
#X connect 59 0 60 0;
#X connect 60 0 55 1;
#X connect 61 0 63 0;
#X connect 62 0 66 1;
#X connect 63 0 65 0;
#X connect 64 0 80 0;
#X connect 64 1 63 1;
#X connect 65 0 62 0;
#X connect 66 0 69 0;
#X connect 67 0 35 1;
#X connect 70 0 76 0;
#X connect 71 0 0 0;
#X connect 72 0 7 0;
#X connect 73 0 12 0;
#X connect 74 0 17 0;
#X connect 75 0 22 0;
#X connect 76 0 90 0;
#X connect 76 1 67 0;
#X connect 76 2 77 0;
#X connect 77 0 45 0;
#X connect 77 1 59 0;
#X connect 78 0 79 0;
#X connect 79 0 44 0;
#X connect 80 0 81 0;
#X connect 81 0 58 0;
#X connect 82 0 37 0;
#X connect 83 0 82 0;
#X connect 84 0 43 0;
#X connect 85 0 57 0;
#X connect 86 0 11 0;
#X connect 87 0 16 0;
#X connect 88 0 21 0;
#X connect 89 0 26 0;
#X connect 90 0 37 0;
#X connect 90 1 91 0;
#X connect 91 0 37 0;
#X restore 87 95 pd lowBell;
#X obj 88 182 *~;
#X obj 140 182 *~;
#X obj 88 262 *~;
#X obj 140 262 *~;
#X obj 98 236 throw~ out.l;
#X obj 150 209 throw~ out.r;
#X obj 89 316 throw~ dub.l;
#X obj 140 289 throw~ dub.r;
#X obj 161 366 *~;
#X obj 213 366 *~;
#X obj 162 420 throw~ verb.l;
#X obj 213 393 throw~ verb.r;
#X obj 87 41 r bell.on;
#X obj 183 139 r bell.amp;
#X obj 234 207 r bell.dub;
#X obj 240 302 r bell.verb;
#X obj 179 166 lop~ 32;
#X obj 235 236 lop~ 32;
#X obj 238 334 lop~ 32;
#X connect 0 0 2 0;
#X connect 0 1 1 0;
#X connect 1 0 3 0;
#X connect 1 1 4 0;
#X connect 2 0 3 0;
#X connect 2 1 4 0;
#X connect 3 0 7 0;
#X connect 3 0 5 0;
#X connect 3 0 11 0;
#X connect 4 0 8 0;
#X connect 4 0 6 0;
#X connect 4 0 12 0;
#X connect 5 0 9 0;
#X connect 5 0 11 0;
#X connect 6 0 10 0;
#X connect 6 0 12 0;
#X connect 11 0 13 0;
#X connect 12 0 14 0;
#X connect 15 0 0 0;
#X connect 16 0 19 0;
#X connect 17 0 20 0;
#X connect 18 0 21 0;
#X connect 19 0 3 1;
#X connect 19 0 4 1;
#X connect 20 0 5 1;
#X connect 20 0 6 1;
#X connect 21 0 11 1;
#X connect 21 0 12 1;
#X restore 31 245 pd bell_stuff;
#N canvas 0 15 885 718 output_stuff 0;
#X obj 348 561 dac~;
#X obj 160 312 catch~ dub.l;
#X obj 259 313 catch~ dub.r;
#X obj 74 366 catch~ out.l;
#X obj 103 388 catch~ out.r;
#X obj 103 410 *~;
#X obj 74 388 *~;
#X obj 160 366 *~;
#X obj 258 366 *~;
#X obj 383 531 *~;
#X obj 335 524 *~;
#X obj 160 339 dub~ 75 0.95 5000;
#X obj 404 423 plugin~ Plate2x2;
#X msg 403 306 control tail 0.749 \, control damping 0.0005 \, control
blend 1 \, control bandwidth 0.999;
#X obj 429 455 *~;
#X obj 527 455 *~;
#X obj 528 402 catch~ verb.r;
#X obj 429 401 catch~ verb.l;
#X obj 403 279 loadbang;
#X obj 446 343 r verb.amp;
#X obj 85 306 r pre.amp;
#X obj 305 355 r post.amp;
#X obj 174 258 r dub.amp;
#X obj 305 380 lop~ 32;
#X obj 443 374 lop~ 32;
#X obj 174 285 lop~ 32;
#X obj 89 335 lop~ 32;
#X connect 1 0 11 0;
#X connect 1 0 11 0;
#X connect 2 0 11 1;
#X connect 2 0 11 1;
#X connect 3 0 6 0;
#X connect 4 0 5 0;
#X connect 5 0 9 0;
#X connect 6 0 10 0;
#X connect 7 0 10 0;
#X connect 8 0 9 0;
#X connect 9 0 0 1;
#X connect 10 0 0 0;
#X connect 11 0 7 0;
#X connect 11 0 7 0;
#X connect 11 1 8 0;
#X connect 11 1 8 0;
#X connect 12 1 14 0;
#X connect 12 2 15 0;
#X connect 13 0 12 0;
#X connect 14 0 10 0;
#X connect 15 0 9 0;
#X connect 16 0 12 2;
#X connect 17 0 12 1;
#X connect 18 0 13 0;
#X connect 19 0 24 0;
#X connect 20 0 26 0;
#X connect 21 0 23 0;
#X connect 22 0 25 0;
#X connect 23 0 9 1;
#X connect 23 0 10 1;
#X connect 24 0 15 1;
#X connect 24 0 14 1;
#X connect 25 0 8 1;
#X connect 25 0 7 1;
#X connect 26 0 5 1;
#X connect 26 0 6 1;
#X restore 31 272 pd output_stuff;
#X obj 606 291 tgl 15 0 empty empty empty 17 7 0 10 -262144 -1 -1 0
1;
#X floatatom 680 289 5 0 0 0 - - -;
#X obj 781 238 vsl 15 64 0 1 0 0 empty empty empty 0 -9 0 10 -262144
-1 -1 0 1;
#X obj 811 218 vsl 15 64 0 1 0 0 empty empty empty 0 -9 0 10 -262144
-1 -1 0 1;
#X obj 841 198 vsl 15 64 0 1 0 0 empty empty empty 0 -9 0 10 -262144
-1 -1 0 1;
#X obj 895 299 tgl 15 0 empty empty empty 17 7 0 10 -262144 -1 -1 0
1;
#X floatatom 969 297 5 0 0 0 - - -;
#X obj 1070 246 vsl 15 64 0 1 0 0 empty empty empty 0 -9 0 10 -262144
-1 -1 0 1;
#X obj 1100 226 vsl 15 64 0 1 0 0 empty empty empty 0 -9 0 10 -262144
-1 -1 0 1;
#X obj 1130 206 vsl 15 64 0 1 0 0 empty empty empty 0 -9 0 10 -262144
-1 -1 0 1;
#X obj 895 324 s swarm.on;
#X obj 969 323 s swarm.density;
#X obj 1070 324 s swarm.amp;
#X obj 1100 304 s swarm.dub;
#X obj 1130 284 s swarm.verb;
#X obj 621 451 tgl 15 0 empty empty empty 17 7 0 10 -262144 -1 -1 0
1;
#X obj 686 398 vsl 15 64 0 1 0 0 empty empty empty 0 -9 0 10 -262144
-1 -1 0 1;
#X obj 716 378 vsl 15 64 0 1 0 0 empty empty empty 0 -9 0 10 -262144
-1 -1 0 1;
#X obj 746 358 vsl 15 64 0 1 0 0 empty empty empty 0 -9 0 10 -262144
-1 -1 0 1;
#X obj 621 476 s beep.on;
#X obj 686 476 s beep.amp;
#X obj 716 456 s beep.dub;
#X obj 746 436 s beep.verb;
#X obj 829 457 tgl 15 0 empty empty empty 17 7 0 10 -262144 -1 -1 0
1;
#X obj 904 404 vsl 15 64 0 1 0 0 empty empty empty 0 -9 0 10 -262144
-1 -1 0 1;
#X obj 934 384 vsl 15 64 0 1 0 0 empty empty empty 0 -9 0 10 -262144
-1 -1 0 1;
#X obj 964 364 vsl 15 64 0 1 0 0 empty empty empty 0 -9 0 10 -262144
-1 -1 0 1;
#X obj 829 482 s tabla.on;
#X obj 904 482 s tabla.amp;
#X obj 934 462 s tabla.dub;
#X obj 964 442 s tabla.verb;
#X obj 954 84 vsl 15 64 0 1 0 0 empty empty empty 0 -9 0 10 -262144
-1 -1 0 1;
#X obj 984 64 vsl 15 64 0 1 0 0 empty empty empty 0 -9 0 10 -262144
-1 -1 0 1;
#X obj 1014 44 vsl 15 64 0 1 0 0 empty empty empty 0 -9 0 10 -262144
-1 -1 0 1;
#X obj 21 426 vsl 15 64 0 1 0 0 empty empty empty 0 -9 0 10 -262144
-1 -1 0 1;
#X obj 51 406 vsl 15 64 0 1 0 0 empty empty empty 0 -9 0 10 -262144
-1 -1 0 1;
#X obj 81 386 vsl 15 64 0 1 0 0 empty empty empty 0 -9 0 10 -262144
-1 -1 0 1;
#X obj 111 366 vsl 15 64 0 1 0 0 empty empty empty 0 -9 0 10 -262144
-1 -1 0 1;
#X obj 21 504 s pre.amp;
#X obj 51 484 s dub.amp;
#X obj 81 464 s verb.amp;
#X obj 111 444 s post.amp;
#X obj 606 316 s clicks.on;
#X obj 680 315 s clicks.density;
#X obj 781 316 s clicks.amp;
#X obj 811 296 s clicks.dub;
#X obj 841 276 s clicks.verb;
#X obj 889 162 s bell.on;
#X obj 954 162 s bell.amp;
#X obj 984 142 s bell.dub;
#X obj 1014 122 s bell.verb;
#X obj 889 137 tgl 15 0 empty empty empty 17 7 0 10 -262144 -1 -1 0
1;
#N canvas 0 15 885 697 flute_stuff 0;
#X obj 510 114 fiddle~ 1024 1 20 3;
#X obj 46 37 adc~ 1;
#X obj 47 92 *~;
#X obj 98 57 r flute.on;
#X obj 98 84 lop~ 32;
#X obj 50 174 *~;
#X obj 84 131 r flute.amp;
#X obj 312 266 vd~ flute.l;
#X obj 232 105 phasor~ 0.05;
#X obj 232 131 +~ 0.5;
#X obj 312 185 cos~;
#X obj 232 185 cos~;
#X obj 232 266 vd~ flute.r;
#X obj 232 158 wrap~;
#X obj 232 293 *~ 0.75;
#X obj 312 293 *~ 0.75;
#X obj 107 201 *~;
#X obj 140 158 r flute.delay;
#X obj 740 158 lop~ 24;
#X obj 84 158 lop~ 24;
#X obj 140 185 lop~ 24;
#X obj 593 141 t f f;
#X obj 510 346 osc~;
#X obj 510 141 mtof;
#X obj 510 168 * 0.5;
#X obj 510 195 lop~ 32;
#X obj 510 319 +~;
#X obj 525 292 *~;
#X obj 593 249 lop~ 16;
#X obj 510 423 *~;
#X obj 548 407 lop~ 24;
#X obj 548 380 r flute.fm.amp;
#X obj 51 623 throw~ out.l;
#X obj 61 596 throw~ out.r;
#X obj 287 604 throw~ verb.r;
#X obj 231 631 throw~ verb.l;
#X obj 232 577 *~;
#X obj 301 401 lop~ 24;
#X obj 287 577 *~;
#X obj 301 374 r flute.verb;
#X obj 740 259 metro 125;
#X msg 740 212 1;
#X msg 869 212 0;
#X obj 740 313 f;
#X obj 772 313 + 1;
#X obj 755 286 r flute.reset;
#X obj 740 340 s flute.t;
#X obj 593 276 *~;
#X obj 649 260 lop~ 24;
#X obj 649 233 r flute.fm.mod;
#X obj 525 265 osc~ 295.5;
#X obj 593 168 clip 55 70;
#X obj 593 195 - 55;
#X obj 593 222 / 15;
#X obj 510 381 *~;
#X obj 591 330 +~ 30;
#X obj 740 185 threshold~ 58 10 70 10;
#X obj 48 134 *~ 16;
#X obj 312 347 delwrite~ flute.r 550;
#X obj 232 320 delwrite~ flute.l 550;
#X obj 312 239 +~ 525;
#X obj 232 239 +~ 525;
#X obj 232 212 *~ 25;
#X obj 312 212 *~ 25;
#X obj 220 50 readsf~;
#X obj 227 22 r flute.dummy;
#X connect 0 0 23 0;
#X connect 0 3 21 0;
#X connect 1 0 2 0;
#X connect 2 0 0 0;
#X connect 2 0 57 0;
#X connect 3 0 4 0;
#X connect 4 0 2 1;
#X connect 5 0 16 0;
#X connect 5 0 32 0;
#X connect 5 0 33 0;
#X connect 5 0 36 0;
#X connect 5 0 38 0;
#X connect 6 0 19 0;
#X connect 7 0 15 0;
#X connect 8 0 9 0;
#X connect 8 0 10 0;
#X connect 9 0 13 0;
#X connect 10 0 63 0;
#X connect 11 0 62 0;
#X connect 12 0 14 0;
#X connect 13 0 11 0;
#X connect 14 0 33 0;
#X connect 14 0 38 0;
#X connect 14 0 59 0;
#X connect 15 0 32 0;
#X connect 15 0 36 0;
#X connect 15 0 58 0;
#X connect 16 0 58 0;
#X connect 16 0 59 0;
#X connect 17 0 20 0;
#X connect 18 0 56 0;
#X connect 19 0 5 1;
#X connect 20 0 16 1;
#X connect 21 0 51 0;
#X connect 21 1 18 0;
#X connect 22 0 54 0;
#X connect 23 0 24 0;
#X connect 24 0 25 0;
#X connect 25 0 26 0;
#X connect 26 0 22 0;
#X connect 27 0 26 1;
#X connect 28 0 47 0;
#X connect 28 0 54 1;
#X connect 29 0 33 0;
#X connect 29 0 32 0;
#X connect 29 0 36 0;
#X connect 29 0 38 0;
#X connect 29 0 58 0;
#X connect 29 0 59 0;
#X connect 30 0 29 1;
#X connect 31 0 30 0;
#X connect 36 0 35 0;
#X connect 37 0 36 1;
#X connect 37 0 38 1;
#X connect 38 0 34 0;
#X connect 39 0 37 0;
#X connect 40 0 43 0;
#X connect 41 0 40 0;
#X connect 42 0 40 0;
#X connect 43 0 44 0;
#X connect 43 0 46 0;
#X connect 44 0 43 1;
#X connect 45 0 43 0;
#X connect 47 0 55 0;
#X connect 48 0 47 1;
#X connect 49 0 48 0;
#X connect 50 0 27 0;
#X connect 51 0 52 0;
#X connect 52 0 53 0;
#X connect 53 0 28 0;
#X connect 54 0 29 0;
#X connect 55 0 27 1;
#X connect 56 0 41 0;
#X connect 56 1 42 0;
#X connect 57 0 5 0;
#X connect 60 0 7 0;
#X connect 61 0 12 0;
#X connect 62 0 61 0;
#X connect 63 0 60 0;
#X connect 64 0 57 0;
#X connect 64 0 0 0;
#X connect 65 0 64 0;
#X restore 31 319 pd flute_stuff;
#X floatatom 746 630 5 0 0 0 - - -;
#X obj 746 656 s flute.fm.mod;
#X obj 397 603 tgl 15 0 empty empty mic_on/off 17 7 0 10 -262144 -1
-1 0 1;
#X obj 397 628 s flute.on;
#X obj 610 580 vsl 15 64 0 1 0 0 empty empty empty 0 -9 0 10 -262144
-1 -1 0 1;
#X obj 610 657 s flute.amp;
#X obj 635 552 vsl 15 64 0 1 0 0 empty empty empty 0 -9 0 10 -262144
-1 -1 0 1;
#X obj 635 629 s flute.delay;
#X obj 660 525 vsl 15 64 0 1 0 0 empty empty empty 0 -9 0 10 -262144
-1 -1 0 1;
#X obj 660 602 s flute.verb;
#X obj 202 660 s flute.dummy;
#X msg 220 639 stop;
#X msg 202 612 open flute.wav \, start;
#N canvas 0 15 885 718 seq_stuff 0;
#X obj 100 251 until;
#X obj 102 289 f;
#X obj 146 285 + 1;
#X obj 110 465 tabwrite drone;
#X obj 104 321 t f f;
#X obj 100 224 t f b b;
#X obj 111 434 sin;
#X obj 148 253 f;
#X obj 108 377 /;
#X obj 105 349 -;
#X obj 87 148 -;
#X msg 127 71 80;
#X obj 280 264 until;
#X obj 282 302 f;
#X obj 326 298 + 1;
#X obj 284 334 t f f;
#X obj 280 237 t f b b;
#X obj 291 447 sin;
#X obj 328 266 f;
#X obj 288 390 /;
#X obj 285 362 -;
#X obj 267 165 -;
#X obj 675 277 until;
#X obj 677 315 f;
#X obj 721 311 + 1;
#X obj 679 347 t f f;
#X obj 675 250 t f b b;
#X obj 686 460 sin;
#X obj 723 279 f;
#X obj 683 403 /;
#X obj 680 375 -;
#X obj 671 172 -;
#X obj 685 491 tabwrite fm;
#X obj 290 478 tabwrite click2;
#X msg 702 97 40;
#X obj 478 270 until;
#X obj 480 308 f;
#X obj 524 304 + 1;
#X obj 482 340 t f f;
#X obj 478 243 t f b b;
#X obj 489 453 sin;
#X obj 526 272 f;
#X obj 486 396 /;
#X obj 483 368 -;
#X obj 470 170 -;
#X msg 505 90 480;
#X msg 307 84 240;
#X obj 289 417 * 3.1459;
#X obj 487 423 * 3.1459;
#X obj 684 430 * 3.1459;
#X obj 488 484 tabwrite tablax;
#X obj 110 38 table drone 2000;
#X obj 340 52 table click2 2000;
#X obj 538 58 table tablax 2000;
#X obj 693 75 table fm 2000;
#X msg 670 153 1200 \$1;
#X msg 475 147 1200 \$1;
#X msg 269 139 1200 \$1;
#X obj 245 25 loadbang;
#X obj 142 616 change -1;
#X obj 142 562 r flute.t;
#X obj 142 589 expr if($f1>480 & $f1<1000 \, 1 \, 0);
#X obj 142 640 s beep.on;
#X obj 378 568 r flute.t;
#X obj 378 649 s flute.fm.amp;
#X obj 378 595 tabread fm;
#X obj 378 622 * 0.18;
#X obj 554 619 s swarm.density;
#X obj 657 633 s tabla.amp;
#X obj 510 649 s clicks.density;
#X obj 578 534 r flute.t;
#X obj 657 586 * 0.587;
#X obj 576 557 tabread click2;
#X obj 509 593 * 13;
#X obj 554 592 * 24;
#X obj 59 579 s bell.on;
#X obj 59 554 change -1;
#X obj 58 504 r flute.t;
#X obj 58 528 expr if($f1>640 & $f1<1000 \, 1 \, 0);
#X obj 753 657 s drone.voices;
#X obj 759 544 tabread drone;
#X obj 761 569 * 64;
#X obj 761 596 int;
#X obj 761 623 change -1;
#X obj 759 516 r flute.t;
#X msg 85 124 1200 \$1;
#X obj 308 108 t f f f;
#X obj 507 116 t f f f;
#X obj 704 123 t f f f;
#X obj 129 97 t f f f;
#X obj 97 397 * 3.1459;
#X obj 95 178 t f f;
#X obj 675 222 t f f;
#X obj 478 215 t f f;
#X obj 280 209 t f f;
#X connect 0 0 1 0;
#X connect 1 0 2 0;
#X connect 1 0 4 0;
#X connect 2 0 1 1;
#X connect 4 0 9 0;
#X connect 4 1 3 1;
#X connect 5 0 0 0;
#X connect 5 1 7 0;
#X connect 6 0 3 0;
#X connect 7 0 1 1;
#X connect 8 0 90 0;
#X connect 9 0 8 0;
#X connect 10 0 91 0;
#X connect 11 0 89 0;
#X connect 12 0 13 0;
#X connect 13 0 14 0;
#X connect 13 0 15 0;
#X connect 14 0 13 1;
#X connect 15 0 20 0;
#X connect 15 1 33 1;
#X connect 16 0 12 0;
#X connect 16 1 18 0;
#X connect 17 0 33 0;
#X connect 18 0 13 1;
#X connect 19 0 47 0;
#X connect 20 0 19 0;
#X connect 21 0 94 0;
#X connect 22 0 23 0;
#X connect 23 0 24 0;
#X connect 23 0 25 0;
#X connect 24 0 23 1;
#X connect 25 0 30 0;
#X connect 25 1 32 1;
#X connect 26 0 22 0;
#X connect 26 1 28 0;
#X connect 27 0 32 0;
#X connect 28 0 23 1;
#X connect 29 0 49 0;
#X connect 30 0 29 0;
#X connect 31 0 92 0;
#X connect 34 0 88 0;
#X connect 35 0 36 0;
#X connect 36 0 37 0;
#X connect 36 0 38 0;
#X connect 37 0 36 1;
#X connect 38 0 43 0;
#X connect 38 1 50 1;
#X connect 39 0 35 0;
#X connect 39 1 41 0;
#X connect 40 0 50 0;
#X connect 41 0 36 1;
#X connect 42 0 48 0;
#X connect 43 0 42 0;
#X connect 44 0 93 0;
#X connect 45 0 87 0;
#X connect 46 0 86 0;
#X connect 47 0 17 0;
#X connect 48 0 40 0;
#X connect 49 0 27 0;
#X connect 55 0 31 0;
#X connect 56 0 44 0;
#X connect 57 0 21 0;
#X connect 58 0 11 0;
#X connect 58 0 46 0;
#X connect 58 0 45 0;
#X connect 58 0 34 0;
#X connect 59 0 62 0;
#X connect 60 0 61 0;
#X connect 61 0 59 0;
#X connect 63 0 65 0;
#X connect 65 0 66 0;
#X connect 66 0 64 0;
#X connect 70 0 72 0;
#X connect 71 0 68 0;
#X connect 72 0 71 0;
#X connect 72 0 73 0;
#X connect 72 0 74 0;
#X connect 73 0 69 0;
#X connect 74 0 67 0;
#X connect 76 0 75 0;
#X connect 77 0 78 0;
#X connect 78 0 76 0;
#X connect 80 0 81 0;
#X connect 81 0 82 0;
#X connect 82 0 83 0;
#X connect 83 0 79 0;
#X connect 84 0 80 0;
#X connect 85 0 10 0;
#X connect 86 0 57 0;
#X connect 86 1 20 1;
#X connect 86 2 18 1;
#X connect 87 0 56 0;
#X connect 87 1 43 1;
#X connect 87 2 41 1;
#X connect 88 0 55 0;
#X connect 88 1 30 1;
#X connect 88 2 28 1;
#X connect 89 0 85 0;
#X connect 89 1 9 1;
#X connect 89 2 7 1;
#X connect 90 0 6 0;
#X connect 91 0 5 0;
#X connect 91 1 8 1;
#X connect 92 0 26 0;
#X connect 92 1 29 1;
#X connect 93 0 39 0;
#X connect 93 1 42 1;
#X connect 94 0 16 0;
#X connect 94 1 19 1;
#X restore 34 296 pd seq_stuff;
#X obj 744 525 vsl 15 64 0 1 0 0 empty empty empty 0 -9 0 10 -262144
-1 -1 0 1;
#X obj 744 602 s flute.fm.amp;
#X text 354 54 All Off;
#X text 211 51 Static Mode;
#X text 480 60 Performance Mode;
#X obj 124 611 r flute.t;
#X floatatom 124 638 5 0 0 0 - - -;
#X text 206 590 Playback flute recording;
#X msg 197 78 \; flute.amp 0 \; flute.delay 0 \; flute.verb 0 \; flute.reset
0 \; flute.on 0 \; flute.fm.mod 0 \; drone.voices 64 \; drone.amp 1
\; drone.dub 1 \; drone.verb 1 \; clicks.on 1 \; clicks.density 9 \;
clicks.amp 0.428 \; clicks.dub 0.396 \; clicks.verb 0.619 \; swarm.on
1 \; swarm.density 16 \; swarm.amp 0.476 \; swarm.dub 0.396 \; swarm.verb
0.603 \; beep.on 1 \; beep.amp 0.476 \; beep.dub 0.65 \; beep.verb
0.682 \; tabla.on 1 \; tabla.amp 0.587 \; tabla.dub 0.492 \; tabla.verb
0.396 \; bell.on 1 \; bell.amp 0.3 \; bell.dub 0.698 \; bell.verb 0.793
\; pre.amp 1 \; dub.amp 0.65 \; verb.amp 1 \; post.amp 0.5 \;;
#X msg 325 76 \; flute.amp 0 \; flute.delay 0 \; flute.verb 0 \; flute.reset
0 \; flute.on 0 \; flute.fm.mod 0 \; drone.voices 0 \; drone.amp 0
\; drone.dub 0 \; drone.verb 0 \; clicks.on 0 \; clicks.density 0 \;
clicks.amp 0 \; clicks.dub 0 \; clicks.verb 0 \; swarm.on 0 \; swarm.density
0 \; swarm.amp 0 \; swarm.dub 0 \; swarm.verb 0 \; beep.on 0 \; beep.amp
0 \; beep.dub 0 \; beep.verb 0 \; tabla.on 0 \; tabla.amp 0 \; tabla.dub
0 \; tabla.verb 0 \; bell.on 0 \; bell.amp 0 \; bell.dub 0 \; bell.verb
0 \; pre.amp 0 \; dub.amp 0 \; verb.amp 0 \; post.amp 0 \;;
#X msg 466 81 \; flute.amp 0.5 \; flute.delay 1 \; flute.verb 0.5 \;
flute.reset 0 \; flute.on 0 \; flute.fm.mod 450 \; drone.voices 0 \;
drone.amp 1 \; drone.dub 1 \; drone.verb 1 \; clicks.on 1 \; clicks.density
0 \; clicks.amp 0.428 \; clicks.dub 0.396 \; clicks.verb 0.619 \; swarm.on
1 \; swarm.density 0 \; swarm.amp 0.476 \; swarm.dub 0.396 \; swarm.verb
0.603 \; beep.on 0 \; beep.amp 0.476 \; beep.dub 0.65 \; beep.verb
0.682 \; tabla.on 1 \; tabla.amp 0 \; tabla.dub 0.492 \; tabla.verb
0.396 \; bell.on 0 \; bell.amp 0.3 \; bell.dub 0.698 \; bell.verb 0.793
\; pre.amp 1 \; dub.amp 0.65 \; verb.amp 1 \; post.amp 0.5 \;;
#X connect 3 0 10 0;
#X connect 4 0 10 0;
#X connect 5 0 10 0;
#X connect 6 0 10 0;
#X connect 7 0 10 0;
#X connect 8 0 10 0;
#X connect 9 0 10 0;
#X connect 11 0 12 0;
#X connect 13 0 14 0;
#X connect 15 0 16 0;
#X connect 22 0 64 0;
#X connect 23 0 65 0;
#X connect 24 0 66 0;
#X connect 25 0 67 0;
#X connect 26 0 68 0;
#X connect 27 0 32 0;
#X connect 28 0 33 0;
#X connect 29 0 34 0;
#X connect 30 0 35 0;
#X connect 31 0 36 0;
#X connect 37 0 41 0;
#X connect 38 0 42 0;
#X connect 39 0 43 0;
#X connect 40 0 44 0;
#X connect 45 0 49 0;
#X connect 46 0 50 0;
#X connect 47 0 51 0;
#X connect 48 0 52 0;
#X connect 53 0 70 0;
#X connect 54 0 71 0;
#X connect 55 0 72 0;
#X connect 56 0 60 0;
#X connect 57 0 61 0;
#X connect 58 0 62 0;
#X connect 59 0 63 0;
#X connect 73 0 69 0;
#X connect 75 0 76 0;
#X connect 77 0 78 0;
#X connect 79 0 80 0;
#X connect 81 0 82 0;
#X connect 83 0 84 0;
#X connect 86 0 85 0;
#X connect 87 0 85 0;
#X connect 89 0 90 0;
#X connect 94 0 95 0;
