#N canvas 0 15 1159 718 10;
#X obj 137 485 osc~;
#X obj 137 507 *~;
#X obj 137 537 *~;
#X obj 167 537 *~;
#X obj 137 131 random 10000;
#X obj 137 153 / 10000;
#X msg 172 446 0 \, 1 \$1 \, 0 \$1 \$1;
#X obj 172 468 vline~;
#X obj 342 345 random 10000;
#X obj 342 367 / 10000;
#X obj 137 219 t f f;
#X obj 174 222 * 2;
#X obj 201 184 delay;
#X obj 342 389 pack;
#X obj 342 411 line~;
#X obj 137 251 t b f f;
#X obj 342 323 t b f;
#X obj 261 343 random 10000;
#X obj 261 365 / 10000;
#X obj 261 387 pack;
#X obj 261 409 line~;
#X obj 261 321 t b f;
#X obj 261 294 t f f;
#X obj 172 490 lop~ 2;
#X obj 137 559 throw~ pad.l;
#X obj 167 581 throw~ pad.r;
#X obj 90 6 r \$1-go;
#X obj 90 28 sel 1 0;
#X msg 151 72 stop;
#X obj 90 70 f;
#X obj 131 51 t b b;
#X msg 131 73 0;
#X obj 90 92 sel 0;
#X obj 90 114 t b b;
#X msg 52 87 1;
#X obj 137 197 + 10000;
#X obj 137 175 * 20000;
#X obj 261 272 * 2;
#X msg 182 381 2 \$1;
#X obj 182 403 pow;
#X obj 137 452 *;
#X obj 137 278 t b b;
#X obj 182 359 random 7;
#X obj 137 300 random 16;
#X obj 137 322 tabread scale;
#X obj 137 430 * 36.9375;
#X connect 0 0 1 0;
#X connect 1 0 2 0;
#X connect 1 0 3 0;
#X connect 2 0 24 0;
#X connect 3 0 25 0;
#X connect 4 0 5 0;
#X connect 5 0 36 0;
#X connect 6 0 7 0;
#X connect 7 0 23 0;
#X connect 8 0 9 0;
#X connect 9 0 13 0;
#X connect 10 0 15 0;
#X connect 10 1 11 0;
#X connect 11 0 12 0;
#X connect 12 0 4 0;
#X connect 13 0 14 0;
#X connect 14 0 3 1;
#X connect 15 0 41 0;
#X connect 15 1 6 0;
#X connect 15 2 37 0;
#X connect 16 0 8 0;
#X connect 16 1 13 1;
#X connect 17 0 18 0;
#X connect 18 0 19 0;
#X connect 19 0 20 0;
#X connect 20 0 2 1;
#X connect 21 0 17 0;
#X connect 21 1 19 1;
#X connect 22 0 21 0;
#X connect 22 1 16 0;
#X connect 23 0 1 1;
#X connect 26 0 27 0;
#X connect 27 0 29 0;
#X connect 27 1 30 0;
#X connect 28 0 12 0;
#X connect 29 0 32 0;
#X connect 30 0 31 0;
#X connect 30 1 28 0;
#X connect 31 0 29 1;
#X connect 32 0 33 0;
#X connect 33 0 34 0;
#X connect 33 1 4 0;
#X connect 34 0 29 1;
#X connect 35 0 10 0;
#X connect 36 0 35 0;
#X connect 37 0 22 0;
#X connect 38 0 39 0;
#X connect 39 0 40 1;
#X connect 40 0 0 0;
#X connect 41 0 43 0;
#X connect 41 1 42 0;
#X connect 42 0 38 0;
#X connect 43 0 44 0;
#X connect 44 0 45 0;
#X connect 45 0 40 0;
