#N canvas 0 0 1362 696 10;
#X obj 89 336 phasor~;
#X obj 89 419 *~;
#X obj 89 463 *~;
#X obj 129 463 *~;
#X obj 411 428 random 10000;
#X obj 411 450 / 10000;
#X obj 412 478 pack;
#X obj 412 500 line~;
#X obj 413 396 t b f;
#X obj 330 426 random 10000;
#X obj 330 448 / 10000;
#X obj 331 476 pack;
#X obj 331 498 line~;
#X obj 332 394 t b f;
#X obj 175 171 random 10000;
#X obj 175 193 / 10000;
#X msg 158 304 1 \, 0 \$1;
#X obj 158 328 line~;
#X obj 159 357 lop~ 64;
#X obj 27 191 random 10000;
#X obj 27 213 / 10000;
#X obj 26 256 *;
#X obj 26 234 + 1;
#X obj 186 119 t b b;
#X obj 175 259 t f f f;
#X obj 333 350 t f f;
#X obj 86 498 throw~ swarm.l;
#X obj 115 529 throw~ swarm.r;
#X obj 176 73 r \$1-doit;
#X obj 175 237 + 10;
#X obj 175 215 * 20;
#X msg 76 256 2 \$1;
#X obj 76 278 pow;
#X obj 76 214 random 5;
#X obj 76 236 + 7;
#X obj 51 171 t b b;
#X obj 89 380 -~ 1;
#X obj 89 357 *~ 2;
#X connect 0 0 37 0;
#X connect 1 0 2 0;
#X connect 1 0 3 0;
#X connect 2 0 26 0;
#X connect 3 0 27 0;
#X connect 4 0 5 0;
#X connect 5 0 6 0;
#X connect 6 0 7 0;
#X connect 7 0 3 1;
#X connect 8 0 4 0;
#X connect 8 1 6 1;
#X connect 9 0 10 0;
#X connect 10 0 11 0;
#X connect 11 0 12 0;
#X connect 12 0 2 1;
#X connect 13 0 9 0;
#X connect 13 1 11 1;
#X connect 14 0 15 0;
#X connect 15 0 30 0;
#X connect 16 0 17 0;
#X connect 17 0 18 0;
#X connect 18 0 1 1;
#X connect 19 0 20 0;
#X connect 20 0 22 0;
#X connect 21 0 0 0;
#X connect 22 0 21 0;
#X connect 23 0 35 0;
#X connect 23 1 14 0;
#X connect 24 1 16 0;
#X connect 24 2 25 0;
#X connect 25 0 13 0;
#X connect 25 1 8 0;
#X connect 28 0 23 0;
#X connect 29 0 24 0;
#X connect 30 0 29 0;
#X connect 31 0 32 0;
#X connect 32 0 21 1;
#X connect 33 0 34 0;
#X connect 34 0 31 0;
#X connect 35 0 19 0;
#X connect 35 1 33 0;
#X connect 36 0 1 0;
#X connect 37 0 36 0;
